<svg id="visual" viewBox="0 0 900 600" width="900" height="600" xmlns="http://www.w3.org/2000/svg" xmlns:xlink="http://www.w3.org/1999/xlink" version="1.1"><rect x="0" y="0" width="900" height="600" fill="#141414"></rect><path d="M0 363L16.7 370.5C33.3 378 66.7 393 100 401.3C133.3 409.7 166.7 411.3 200 412.7C233.3 414 266.7 415 300 406C333.3 397 366.7 378 400 379.3C433.3 380.7 466.7 402.3 500 414.8C533.3 427.3 566.7 430.7 600 417.8C633.3 405 666.7 376 700 369.5C733.3 363 766.7 379 800 382.8C833.3 386.7 866.7 378.3 883.3 374.2L900 370L900 601L883.3 601C866.7 601 833.3 601 800 601C766.7 601 733.3 601 700 601C666.7 601 633.3 601 600 601C566.7 601 533.3 601 500 601C466.7 601 433.3 601 400 601C366.7 601 333.3 601 300 601C266.7 601 233.3 601 200 601C166.7 601 133.3 601 100 601C66.7 601 33.3 601 16.7 601L0 601Z" fill="#832b97"></path><path d="M0 439L16.7 442.5C33.3 446 66.7 453 100 443.8C133.3 434.7 166.7 409.3 200 410.2C233.3 411 266.7 438 300 440.8C333.3 443.7 366.7 422.3 400 416.8C433.3 411.3 466.7 421.7 500 417.2C533.3 412.7 566.7 393.3 600 392.2C633.3 391 666.7 408 700 417.8C733.3 427.7 766.7 430.3 800 435.8C833.3 441.3 866.7 449.7 883.3 453.8L900 458L900 601L883.3 601C866.7 601 833.3 601 800 601C766.7 601 733.3 601 700 601C666.7 601 633.3 601 600 601C566.7 601 533.3 601 500 601C466.7 601 433.3 601 400 601C366.7 601 333.3 601 300 601C266.7 601 233.3 601 200 601C166.7 601 133.3 601 100 601C66.7 601 33.3 601 16.7 601L0 601Z" fill="#7c279e"></path><path d="M0 477L16.7 479.5C33.3 482 66.7 487 100 480.8C133.3 474.7 166.7 457.3 200 446.5C233.3 435.7 266.7 431.3 300 433.2C333.3 435 366.7 443 400 452.8C433.3 462.7 466.7 474.3 500 478.8C533.3 483.3 566.7 480.7 600 478C633.3 475.3 666.7 472.7 700 472C733.3 471.3 766.7 472.7 800 475.5C833.3 478.3 866.7 482.7 883.3 484.8L900 487L900 601L883.3 601C866.7 601 833.3 601 800 601C766.7 601 733.3 601 700 601C666.7 601 633.3 601 600 601C566.7 601 533.3 601 500 601C466.7 601 433.3 601 400 601C366.7 601 333.3 601 300 601C266.7 601 233.3 601 200 601C166.7 601 133.3 601 100 601C66.7 601 33.3 601 16.7 601L0 601Z" fill="#7325a4"></path><path d="M0 515L16.7 507.8C33.3 500.7 66.7 486.3 100 481.3C133.3 476.3 166.7 480.7 200 479C233.3 477.3 266.7 469.7 300 474C333.3 478.3 366.7 494.7 400 501.3C433.3 508 466.7 505 500 501.2C533.3 497.3 566.7 492.7 600 489.7C633.3 486.7 666.7 485.3 700 489.3C733.3 493.3 766.7 502.7 800 507.5C833.3 512.3 866.7 512.7 883.3 512.8L900 513L900 601L883.3 601C866.7 601 833.3 601 800 601C766.7 601 733.3 601 700 601C666.7 601 633.3 601 600 601C566.7 601 533.3 601 500 601C466.7 601 433.3 601 400 601C366.7 601 333.3 601 300 601C266.7 601 233.3 601 200 601C166.7 601 133.3 601 100 601C66.7 601 33.3 601 16.7 601L0 601Z" fill="#6824ac"></path><path d="M0 503L16.7 509C33.3 515 66.7 527 100 525.5C133.3 524 166.7 509 200 508.3C233.3 507.7 266.7 521.3 300 527.7C333.3 534 366.7 533 400 532C433.3 531 466.7 530 500 528.7C533.3 527.3 566.7 525.7 600 526.3C633.3 527 666.7 530 700 525.3C733.3 520.7 766.7 508.3 800 506.5C833.3 504.7 866.7 513.3 883.3 517.7L900 522L900 601L883.3 601C866.7 601 833.3 601 800 601C766.7 601 733.3 601 700 601C666.7 601 633.3 601 600 601C566.7 601 533.3 601 500 601C466.7 601 433.3 601 400 601C366.7 601 333.3 601 300 601C266.7 601 233.3 601 200 601C166.7 601 133.3 601 100 601C66.7 601 33.3 601 16.7 601L0 601Z" fill="#5a24b4"></path><path d="M0 536L16.7 535.7C33.3 535.3 66.7 534.7 100 535.7C133.3 536.7 166.7 539.3 200 547.3C233.3 555.3 266.7 568.7 300 570C333.3 571.3 366.7 560.7 400 560.2C433.3 559.7 466.7 569.3 500 569.5C533.3 569.7 566.7 560.3 600 560.3C633.3 560.3 666.7 569.7 700 574.5C733.3 579.3 766.7 579.7 800 577.3C833.3 575 866.7 570 883.3 567.5L900 565L900 601L883.3 601C866.7 601 833.3 601 800 601C766.7 601 733.3 601 700 601C666.7 601 633.3 601 600 601C566.7 601 533.3 601 500 601C466.7 601 433.3 601 400 601C366.7 601 333.3 601 300 601C266.7 601 233.3 601 200 601C166.7 601 133.3 601 100 601C66.7 601 33.3 601 16.7 601L0 601Z" fill="#4525bc"></path></svg>